<svg xmlns="http://www.w3.org/2000/svg" width="30" height="30" viewBox="0 0 30 30">
  <path id="github" d="M47,32A15.2,15.2,0,0,0,32,47.382,15.352,15.352,0,0,0,42.259,61.973a1.176,1.176,0,0,0,.254.027.726.726,0,0,0,.77-.763c0-.368-.013-1.333-.02-2.618a6.857,6.857,0,0,1-1.513.181,3.485,3.485,0,0,1-3.542-2.243,4.062,4.062,0,0,0-1.667-2.25c-1.306-.917-.007-.944.094-.944h.007a3.225,3.225,0,0,1,2.3,1.594,2.945,2.945,0,0,0,2.652,1.681,4.216,4.216,0,0,0,1.714-.4,3.323,3.323,0,0,1,.951-2.056c-3.328-.388-6.83-1.708-6.83-7.6a6.02,6.02,0,0,1,1.54-4.125,5.662,5.662,0,0,1,.147-4.071,1.248,1.248,0,0,1,.335-.033c.542,0,1.768.208,3.79,1.614a13.943,13.943,0,0,1,7.513,0c2.022-1.406,3.248-1.614,3.79-1.614a1.248,1.248,0,0,1,.335.033,5.662,5.662,0,0,1,.147,4.071,6.045,6.045,0,0,1,1.54,4.125c0,5.906-3.509,7.205-6.85,7.587a3.73,3.73,0,0,1,1.018,2.846c0,2.056-.02,3.717-.02,4.219a.722.722,0,0,0,.763.77,1.3,1.3,0,0,0,.268-.027A15.437,15.437,0,0,0,47,32Z" transform="translate(-32 -32)" fill="#34495e"/>
</svg>
