<svg xmlns="http://www.w3.org/2000/svg" width="30" height="30" viewBox="0 0 30 30">
  <path id="linkedin" d="M27.857,2.667H2.136A2.152,2.152,0,0,0,0,4.83V30.5a2.152,2.152,0,0,0,2.136,2.163H27.857A2.158,2.158,0,0,0,30,30.5V4.83a2.158,2.158,0,0,0-2.143-2.163ZM9.068,28.381H4.621V14.064H9.074V28.381ZM6.844,12.108A2.578,2.578,0,1,1,9.422,9.531a2.579,2.579,0,0,1-2.578,2.578Zm18.89,16.273H21.288V21.417c0-1.661-.033-3.8-2.31-3.8-2.316,0-2.672,1.809-2.672,3.676v7.085H11.86V14.064h4.265v1.955h.06a4.682,4.682,0,0,1,4.212-2.31c4.5,0,5.337,2.967,5.337,6.824v7.848Z" transform="translate(0 -2.667)" fill="#34495e"/>
</svg>
