<svg xmlns="http://www.w3.org/2000/svg" width="30" height="30" viewBox="0 0 30 30">
  <path id="whatsapp" d="M15.272.667A14.671,14.671,0,0,0,.545,15.281a14.467,14.467,0,0,0,2.113,7.546L0,30.667l8.153-2.59A14.753,14.753,0,0,0,30,15.281,14.671,14.671,0,0,0,15.272.667ZM22.6,20.83a3.807,3.807,0,0,1-2.605,1.679c-.692.037-.711.535-4.476-1.1s-6.03-5.615-6.209-5.871a7.22,7.22,0,0,1-1.389-3.914A4.171,4.171,0,0,1,9.35,8.562a1.444,1.444,0,0,1,1.02-.429c.3,0,.488-.008.708,0s.548-.046.833.713.967,2.622,1.055,2.812a.681.681,0,0,1,.007.654,2.555,2.555,0,0,1-.4.608c-.2.211-.413.472-.589.633-.2.178-.4.373-.194.755a11.244,11.244,0,0,0,1.994,2.661,10.263,10.263,0,0,0,2.953,1.963c.369.2.59.179.818-.062s.981-1.055,1.245-1.417.513-.293.853-.156S21.807,18.4,22.177,18.6s.616.3.7.462a3.1,3.1,0,0,1-.286,1.765Z" transform="translate(0 -0.667)" fill="#34495e"/>
</svg>
