<?xml version="1.0" standalone="no"?>
<!DOCTYPE svg PUBLIC "-//W3C//DTD SVG 20010904//EN"
 "http://www.w3.org/TR/2001/REC-SVG-20010904/DTD/svg10.dtd">
<svg version="1.0" xmlns="http://www.w3.org/2000/svg"
 width="512.000000pt" height="512.000000pt" viewBox="0 0 512.000000 512.000000"
 preserveAspectRatio="xMidYMid meet">
<metadata>
Created by potrace 1.11, written by Peter Selinger 2001-2013
</metadata>
<g transform="translate(0.000000,512.000000) scale(0.100000,-0.100000)"
fill="#000000" stroke="none">
<path d="M3211 4100 c-133 -36 -213 -96 -263 -198 -32 -64 -33 -71 -33 -187 0
-111 2 -124 28 -177 54 -109 152 -176 402 -270 71 -27 146 -60 166 -73 87 -57
70 -157 -30 -185 -54 -15 -151 -12 -203 6 -67 23 -82 43 -86 125 l-4 69 -159
0 -159 0 0 -108 c0 -152 16 -200 90 -273 105 -103 249 -145 468 -137 152 6
231 28 324 91 123 83 173 181 173 342 0 89 -3 106 -28 157 -32 65 -108 139
-185 181 -29 16 -118 53 -198 83 -209 77 -244 102 -244 176 0 62 42 88 140 88
67 0 136 -23 150 -51 6 -10 10 -40 10 -68 l0 -51 160 0 160 0 0 128 c0 115 -2
133 -23 173 -32 60 -104 112 -201 145 -72 24 -98 28 -231 31 -125 2 -162 0
-224 -17z"/>
<path d="M1190 3970 l0 -130 75 0 75 0 0 -435 0 -435 -75 0 -75 0 0 -130 0
-130 335 0 335 0 0 130 0 130 -80 0 -80 0 0 145 0 145 245 0 245 0 0 -145 0
-145 -75 0 -75 0 0 -130 0 -130 335 0 335 0 0 130 0 130 -80 0 -80 0 0 435 0
435 80 0 80 0 0 130 0 130 -335 0 -335 0 0 -130 0 -130 75 0 75 0 0 -150 0
-150 -245 0 -245 0 0 150 0 150 80 0 80 0 0 130 0 130 -335 0 -335 0 0 -130z"/>
<path d="M790 2340 l0 -130 60 0 c58 0 59 0 68 -32 5 -18 67 -273 138 -565
l129 -533 197 0 197 0 10 38 c50 189 181 726 181 742 0 11 5 20 10 20 6 0 10
-9 10 -20 0 -16 131 -553 181 -742 l10 -38 197 0 197 0 129 533 c71 292 133
547 138 565 9 32 10 32 68 32 l60 0 0 130 0 130 -315 0 -315 0 0 -130 0 -130
80 0 c78 0 80 -1 75 -22 -12 -50 -124 -597 -133 -648 -5 -30 -10 -43 -11 -28
-1 22 -180 766 -221 919 l-11 39 -139 0 -139 0 -11 -39 c-41 -153 -220 -897
-221 -919 -1 -15 -6 -2 -11 28 -9 51 -121 598 -133 648 -5 21 -3 22 75 22 l80
0 0 130 0 130 -315 0 -315 0 0 -130z"/>
<path d="M2880 2340 l0 -130 75 0 75 0 0 -435 0 -435 -75 0 -75 0 0 -131 0
-130 423 3 422 3 80 27 c217 74 367 233 427 455 30 114 30 308 -1 418 -37 132
-76 201 -166 292 -66 66 -98 90 -166 123 -138 66 -171 70 -621 70 l-398 0 0
-130z m801 -181 c72 -34 125 -87 160 -163 92 -198 39 -483 -108 -580 -55 -36
-144 -56 -250 -56 l-93 0 0 416 0 416 118 -4 c100 -3 125 -7 173 -29z"/>
</g>
</svg>
